<svg width="40" height="40" viewBox="0 0 40 40" fill="none" xmlns="http://www.w3.org/2000/svg">
  <rect width="40" height="40" rx="20" fill="#E6CCFF"/>
  <path d="M21.7276 11.4442L23.4874 14.9929C23.7274 15.4869 24.3673 15.9607 24.9073 16.0514L28.0969 16.5857C30.1367 16.9285 30.6167 18.4206 29.1468 19.8925L26.6671 22.3927C26.2471 22.8161 26.0172 23.6327 26.1471 24.2175L26.8571 27.3125C27.417 29.7623 26.1271 30.71 23.9774 29.4296L20.9877 27.6452C20.4478 27.3226 19.5579 27.3226 19.0079 27.6452L16.0183 29.4296C13.8785 30.71 12.5786 29.7522 13.1386 27.3125L13.8485 24.2175C13.9785 23.6327 13.7485 22.8161 13.3286 22.3927L10.8488 19.8925C9.389 18.4206 9.85895 16.9285 11.8987 16.5857L15.0884 16.0514C15.6183 15.9607 16.2582 15.4869 16.4982 14.9929L18.258 11.4442C19.2179 9.51861 20.7777 9.51861 21.7276 11.4442Z" stroke="#1A1E27" stroke-width="1.5" stroke-linecap="round" stroke-linejoin="round"/>
</svg>
