<svg width="40" height="40" viewBox="0 0 40 40" fill="none" xmlns="http://www.w3.org/2000/svg">
  <rect width="40" height="40" rx="20" fill="#CAFCB0"/>
  <path d="M21.1977 16H18.8023C15.3584 16 13.0364 19.5806 14.393 22.7994C14.582 23.2477 15.0156 23.5385 15.4953 23.5385H16.3389C16.6233 23.5385 16.8711 23.7352 16.9401 24.0157L18.0261 28.4328C18.2525 29.3539 19.0663 30 20 30C20.9337 30 21.7475 29.3539 21.9739 28.4328L23.0599 24.0157C23.1289 23.7352 23.3767 23.5385 23.6611 23.5385H24.5047C24.9844 23.5385 25.418 23.2477 25.607 22.7994C26.9636 19.5806 24.6416 16 21.1977 16Z" stroke="#1A1E27" stroke-width="1.5"/>
  <path d="M20 16C21.6569 16 23 14.6569 23 13C23 11.3431 21.6569 10 20 10C18.3431 10 17 11.3431 17 13C17 14.6569 18.3431 16 20 16Z" stroke="#1A1E27" stroke-width="1.5"/>
</svg>
