<svg width="76" height="76" viewBox="0 0 76 76" fill="none" xmlns="http://www.w3.org/2000/svg">
  <g filter="url(#filter0_bd_55_264)">
    <rect x="8" y="4" width="60" height="60" rx="30" fill="white"/>
  </g>
  <path d="M46.774 40C47.5233 40 48.1193 39.5285 48.6545 38.8691C49.7499 37.5194 47.9513 36.4408 47.2654 35.9126C46.568 35.3756 45.7894 35.0714 45 35M44 33C45.3807 33 46.5 31.8807 46.5 30.5C46.5 29.1193 45.3807 28 44 28" stroke="#1A1E27" stroke-width="1.5" stroke-linecap="round"/>
  <path d="M29.226 40C28.4767 40 27.8807 39.5285 27.3455 38.8691C26.2501 37.5194 28.0487 36.4408 28.7346 35.9126C29.432 35.3756 30.2106 35.0714 31 35M31.5 33C30.1193 33 29 31.8807 29 30.5C29 29.1193 30.1193 28 31.5 28" stroke="#1A1E27" stroke-width="1.5" stroke-linecap="round"/>
  <path d="M34.0838 37.1112C33.062 37.743 30.383 39.0331 32.0147 40.6474C32.8118 41.436 33.6995 42 34.8156 42H41.1844C42.3005 42 43.1882 41.436 43.9853 40.6474C45.617 39.0331 42.938 37.743 41.9162 37.1112C39.5201 35.6296 36.4799 35.6296 34.0838 37.1112Z" stroke="#1A1E27" stroke-width="1.5" stroke-linecap="round" stroke-linejoin="round"/>
  <path d="M41.5 29.5C41.5 31.433 39.933 33 38 33C36.067 33 34.5 31.433 34.5 29.5C34.5 27.567 36.067 26 38 26C39.933 26 41.5 27.567 41.5 29.5Z" stroke="#1A1E27" stroke-width="1.5"/>
  <defs>
    <filter id="filter0_bd_55_264" x="0" y="-4" width="76" height="80" filterUnits="userSpaceOnUse" color-interpolation-filters="sRGB">
      <feFlood flood-opacity="0" result="BackgroundImageFix"/>
      <feGaussianBlur in="BackgroundImageFix" stdDeviation="4"/>
      <feComposite in2="SourceAlpha" operator="in" result="effect1_backgroundBlur_55_264"/>
      <feColorMatrix in="SourceAlpha" type="matrix" values="0 0 0 0 0 0 0 0 0 0 0 0 0 0 0 0 0 0 127 0" result="hardAlpha"/>
      <feOffset dy="4"/>
      <feGaussianBlur stdDeviation="4"/>
      <feComposite in2="hardAlpha" operator="out"/>
      <feColorMatrix type="matrix" values="0 0 0 0 0 0 0 0 0 0 0 0 0 0 0 0 0 0 0.25 0"/>
      <feBlend mode="normal" in2="effect1_backgroundBlur_55_264" result="effect2_dropShadow_55_264"/>
      <feBlend mode="normal" in="SourceGraphic" in2="effect2_dropShadow_55_264" result="shape"/>
    </filter>
  </defs>
</svg>
