<svg width="40" height="40" viewBox="0 0 40 40" fill="none" xmlns="http://www.w3.org/2000/svg">
  <rect width="40" height="40" rx="20" fill="#CAFCB0"/>
  <path d="M17.0684 10H22.9316C23.8529 10 24.3135 10 24.5997 10.2929C25.1334 10.8391 25.1334 13.1609 24.5997 13.7071C24.3135 14 23.8529 14 22.9316 14H17.0684C16.1471 14 15.6865 14 15.4003 13.7071C14.8666 13.1609 14.8666 10.8391 15.4003 10.2929C15.6865 10 16.1471 10 17.0684 10Z" stroke="#1A1E27" stroke-width="1.5"/>
  <path d="M16 14C16.1649 14.3299 16.2474 14.4948 16.3061 14.6557C16.6121 15.4952 16.5281 16.4273 16.0768 17.1985C15.9903 17.3463 15.8797 17.4938 15.6584 17.7888L15.2549 18.3268C14.8049 18.9269 14.5798 19.2269 14.4167 19.5556C14.252 19.8877 14.1342 20.241 14.0668 20.6055C14 20.9664 14 21.3414 14 22.0915V24C14 26.8284 14 28.2426 14.8787 29.1213C15.7574 30 17.1716 30 20 30C22.8284 30 24.2426 30 25.1213 29.1213C26 28.2426 26 26.8284 26 24V22.0915C26 21.3414 26 20.9664 25.9332 20.6055C25.8658 20.241 25.748 19.8877 25.5833 19.5556C25.4202 19.2269 25.1951 18.9269 24.7451 18.3268L24.3416 17.7888C24.1204 17.4938 24.0097 17.3463 23.9232 17.1985C23.4719 16.4273 23.3879 15.4952 23.6939 14.6557C23.7526 14.4948 23.8351 14.3299 24 14" stroke="#1A1E27" stroke-width="1.5"/>
  <path d="M20 21V26M17.5 23.5H22.5" stroke="#1A1E27" stroke-width="1.5" stroke-linecap="round"/>
</svg>
