<svg width="40" height="40" viewBox="0 0 40 40" fill="none" xmlns="http://www.w3.org/2000/svg">
  <rect width="40" height="40" rx="20" fill="#DAE0D7"/>
  <path d="M15 26C13.1711 26.4117 12 27.0443 12 27.7537C12 28.9943 15.5817 30 20 30C24.4183 30 28 28.9943 28 27.7537C28 27.0443 26.8289 26.4117 25 26" stroke="#1A1E27" stroke-width="1.5" stroke-linecap="round"/>
  <path d="M22.5 17C22.5 18.3807 21.3807 19.5 20 19.5C18.6193 19.5 17.5 18.3807 17.5 17C17.5 15.6193 18.6193 14.5 20 14.5C21.3807 14.5 22.5 15.6193 22.5 17Z" stroke="#1A1E27" stroke-width="1.5"/>
  <path d="M21.2574 25.4936C20.9201 25.8184 20.4693 26 20.0002 26C19.531 26 19.0802 25.8184 18.7429 25.4936C15.6543 22.5008 11.5152 19.1575 13.5337 14.3037C14.6251 11.6793 17.2449 10 20.0002 10C22.7554 10 25.3752 11.6793 26.4666 14.3037C28.4826 19.1514 24.3536 22.5111 21.2574 25.4936Z" stroke="#1A1E27" stroke-width="1.5"/>
</svg>
