<svg width="64" height="64" viewBox="0 0 64 64" fill="none" xmlns="http://www.w3.org/2000/svg">
  <rect width="64" height="64" rx="32" fill="#3F80FF" fill-opacity="0.1"/>
  <path d="M35.3334 28C35.3334 29.8409 33.841 31.3333 32 31.3333C30.1591 31.3333 28.6667 29.8409 28.6667 28C28.6667 26.1591 30.1591 24.6667 32 24.6667C33.841 24.6667 35.3334 26.1591 35.3334 28Z" stroke="#3F80FF" stroke-width="1.5"/>
  <path d="M40.2962 38.6667C42.1556 41.318 43.045 42.73 42.5153 43.8665C42.4621 43.9805 42.3998 44.0905 42.3292 44.1956C41.5632 45.3333 39.5833 45.3333 35.6237 45.3333H28.3763C24.4167 45.3333 22.4368 45.3333 21.6708 44.1956C21.6 44.0905 21.5378 43.9805 21.4847 43.8665C20.9549 42.73 21.8443 41.318 23.7037 38.6667" stroke="#3F80FF" stroke-width="1.5" stroke-linecap="round" stroke-linejoin="round"/>
  <path d="M33.6766 39.3248C33.2268 39.7579 32.6258 40 32.0003 40C31.3747 40 30.7736 39.7579 30.3239 39.3248C26.2058 35.3344 20.6869 30.8767 23.3783 24.405C24.8335 20.9058 28.3266 18.6667 32.0003 18.6667C35.6739 18.6667 39.167 20.9058 40.6222 24.405C43.3102 30.8685 37.8048 35.3481 33.6766 39.3248Z" stroke="#3F80FF" stroke-width="1.5"/>
</svg>
