<svg width="20" height="20" viewBox="0 0 20 20" fill="none" xmlns="http://www.w3.org/2000/svg">
  <path d="M12.0833 7.49984C12.0833 8.65042 11.1505 9.58317 9.99996 9.58317C8.84938 9.58317 7.91663 8.65042 7.91663 7.49984C7.91663 6.34925 8.84938 5.4165 9.99996 5.4165C11.1505 5.4165 12.0833 6.34925 12.0833 7.49984Z" stroke="#8E95A3" stroke-width="1.25"/>
  <path d="M15.1852 14.1665C16.3473 15.8236 16.9032 16.7061 16.5721 17.4164C16.5389 17.4877 16.5 17.5564 16.4558 17.6221C15.977 18.3332 14.7396 18.3332 12.2649 18.3332H7.73523C5.26046 18.3332 4.02308 18.3332 3.5443 17.6221C3.50008 17.5564 3.4612 17.4877 3.428 17.4164C3.09686 16.7061 3.65276 15.8236 4.81486 14.1665" stroke="#8E95A3" stroke-width="1.25" stroke-linecap="round" stroke-linejoin="round"/>
  <path d="M11.0478 14.5778C10.7667 14.8485 10.391 14.9998 10.0001 14.9998C9.60913 14.9998 9.23346 14.8485 8.95238 14.5778C6.37854 12.0838 2.92928 9.29775 4.61138 5.25295C5.52088 3.06594 7.70408 1.6665 10.0001 1.6665C12.2961 1.6665 14.4793 3.06595 15.3888 5.25295C17.0688 9.29267 13.628 12.0924 11.0478 14.5778Z" stroke="#8E95A3" stroke-width="1.25"/>
</svg>
