<svg width="40" height="48" viewBox="0 0 40 48" fill="none" xmlns="http://www.w3.org/2000/svg">
  <path d="M40 19.4745C40 8.72727 31.1111 0 20 0C8.88889 0 0 8.72727 0 19.4745C0 30.5455 11.3783 42.7743 20 48C28.6217 42.7743 40 30.5455 40 19.4745Z" fill="#3F80FF"/>
  <path d="M18.8414 10.433C19.2599 10.3264 19.6671 10.25 20 10.25C20.3329 10.25 20.7401 10.3264 21.1586 10.433C21.5904 10.543 22.0852 10.6988 22.6121 10.8857C23.6665 11.2596 24.8817 11.7693 26.0337 12.3202C27.1824 12.8695 28.2909 13.4705 29.1227 14.0306C29.5359 14.3088 29.9063 14.5938 30.1819 14.8732C30.3198 15.013 30.4517 15.1691 30.5529 15.3391C30.6512 15.5042 30.75 15.7317 30.75 16C30.75 16.2683 30.6512 16.4958 30.5529 16.6609C30.4517 16.8309 30.3198 16.987 30.1819 17.1268C29.9063 17.4062 29.5359 17.6912 29.1227 17.9694C28.2909 18.5295 27.1824 19.1305 26.0337 19.6798C24.8817 20.2307 23.6665 20.7404 22.6121 21.1143C22.0852 21.3012 21.5904 21.457 21.1586 21.567C20.7401 21.6736 20.3329 21.75 20 21.75C19.6671 21.75 19.2599 21.6736 18.8414 21.567C18.4096 21.457 17.9148 21.3012 17.3879 21.1143C16.3335 20.7404 15.1182 20.2307 13.9663 19.6798C12.8176 19.1305 11.7091 18.5295 10.8773 17.9694C10.4641 17.6912 10.0937 17.4062 9.81808 17.1268C9.68016 16.987 9.54826 16.8309 9.44706 16.6609C9.34876 16.4958 9.25 16.2683 9.25 16C9.25 15.7317 9.34876 15.5042 9.44706 15.3391C9.54826 15.1691 9.68016 15.013 9.81808 14.8732C10.0937 14.5938 10.4641 14.3088 10.8773 14.0306C11.7091 13.4705 12.8176 12.8695 13.9663 12.3202C15.1182 11.7693 16.3335 11.2596 17.3879 10.8857C17.9148 10.6988 18.4096 10.543 18.8414 10.433Z" fill="white"/>
  <path d="M23.1131 22.5264C22.5586 22.723 22.0181 22.8942 21.5286 23.0189C21.0783 23.1336 20.5244 23.2483 19.9996 23.2483C19.4749 23.2483 18.921 23.1336 18.4707 23.0189C17.9812 22.8942 17.4407 22.723 16.8862 22.5264C16.1767 22.2748 15.4046 21.9673 14.6285 21.6293C14.2498 21.4644 13.8152 21.801 13.9239 22.1995C14.9611 26.0001 19 26.0001 20 29.7501C21 26.0001 25.0385 26.0001 26.0754 22.1995C26.1841 21.801 25.7494 21.4644 25.3707 21.6293C24.5946 21.9673 23.8226 22.2748 23.1131 22.5264Z" fill="white"/>
  <path d="M28.4998 16.75C28.914 16.75 29.2498 17.0858 29.2498 17.5V24.3564C29.3339 24.5459 29.4435 24.7511 29.5771 25.0011C29.6656 25.1667 29.7646 25.3519 29.8736 25.5653C30.1616 26.1288 30.4726 26.8095 30.658 27.5901C30.7814 28.1094 30.8555 28.7964 30.3663 29.287C30.1372 29.5168 29.8547 29.6247 29.6059 29.6799C29.3579 29.7349 29.0858 29.75 28.8152 29.75H28.1843C27.9138 29.75 27.6416 29.7349 27.3936 29.6799C27.1449 29.6247 26.8624 29.5168 26.6332 29.287C26.1441 28.7964 26.2181 28.1094 26.3415 27.5901C26.5269 26.8095 26.8379 26.1288 27.1259 25.5653C27.2349 25.352 27.3339 25.1667 27.4224 25.0012C27.556 24.7513 27.6657 24.5459 27.7498 24.3564V17.5C27.7498 17.0858 28.0856 16.75 28.4998 16.75Z" fill="white"/>
  <path d="M21.4142 21.5858C21.6875 21.8591 21.8757 22.2057 21.9562 22.5837C22.0366 22.9617 22.0058 23.3549 21.8675 23.7158C21.7292 24.0766 21.4893 24.3897 21.1768 24.6171C20.8644 24.8445 20.4927 24.9765 20.1068 24.9971C19.7208 25.0178 19.3372 24.9262 19.0023 24.7334C18.6673 24.5406 18.3954 24.2548 18.2194 23.9108C18.0434 23.5667 17.9709 23.179 18.0106 22.7946C18.0503 22.4102 18.2005 22.0455 18.4431 21.7446L20 23L21.4142 21.5858Z" fill="#3F80FF"/>
</svg>
