<svg width="20" height="20" viewBox="0 0 20 20" fill="none" xmlns="http://www.w3.org/2000/svg">
  <path d="M14.5834 4.1665C15.2737 4.1665 15.8334 4.72615 15.8334 5.4165C15.8334 6.10686 15.2737 6.6665 14.5834 6.6665C13.893 6.6665 13.3334 6.10686 13.3334 5.4165C13.3334 4.72615 13.893 4.1665 14.5834 4.1665Z" stroke="#8E95A3" stroke-width="1.25" stroke-linecap="round" stroke-linejoin="round"/>
  <path d="M2.31182 9.28642C1.47586 10.2201 1.45788 11.6287 2.2251 12.6196C3.74755 14.5859 5.41391 16.2523 7.38024 17.7747C8.37113 18.5419 9.77971 18.5239 10.7134 17.688C13.2482 15.4183 15.5695 13.0464 17.8099 10.4398C18.0314 10.1821 18.1699 9.86625 18.201 9.52784C18.3385 8.03149 18.621 3.7204 17.4502 2.54962C16.2794 1.37885 11.9683 1.66131 10.472 1.7988C10.1335 1.8299 9.81771 1.96845 9.55996 2.18993C6.95339 4.43022 4.58147 6.7516 2.31182 9.28642Z" stroke="#8E95A3" stroke-width="1.25"/>
  <path d="M5.83337 11.6665L8.33337 14.1665" stroke="#8E95A3" stroke-width="1.25" stroke-linecap="round" stroke-linejoin="round"/>
</svg>
