<svg width="64" height="64" viewBox="0 0 64 64" fill="none" xmlns="http://www.w3.org/2000/svg">
  <rect width="64" height="64" rx="32" fill="#3F80FF" fill-opacity="0.1"/>
  <path d="M33.0777 38.2446C32.7887 38.5153 32.4023 38.6666 32.0001 38.6666C31.598 38.6666 31.2116 38.5153 30.9225 38.2446C28.2751 35.7506 24.7273 32.9646 26.4575 28.9197C27.3929 26.7327 29.6385 25.3333 32.0001 25.3333C34.3617 25.3333 36.6073 26.7327 37.5428 28.9197C39.2708 32.9594 35.7317 35.7591 33.0777 38.2446Z" stroke="#3F80FF" stroke-width="2"/>
  <path d="M32 31.3333H32.012" stroke="#3F80FF" stroke-width="2.66667" stroke-linecap="round" stroke-linejoin="round"/>
  <path d="M42.6667 30.6667L45.3334 32.0001C45.3334 24.6363 39.3638 18.6667 32.0001 18.6667C26.5326 18.6667 21.8337 21.9577 19.7762 26.6667M21.3334 33.3334L18.6667 32.0001C18.6667 39.3638 24.6363 45.3334 32.0001 45.3334C37.4675 45.3334 42.1665 42.0425 44.2239 37.3334" stroke="#3F80FF" stroke-width="2" stroke-linecap="round" stroke-linejoin="round"/>
</svg>
