<svg width="64" height="64" viewBox="0 0 64 64" fill="none" xmlns="http://www.w3.org/2000/svg">
  <rect width="64" height="64" rx="32" fill="#3F80FF" fill-opacity="0.1"/>
  <path d="M42 23.3334L41.1737 36.7002C40.9625 40.1152 40.8571 41.8228 40.0011 43.0506C39.5777 43.6575 39.0329 44.1698 38.4009 44.5547C37.1228 45.3334 35.412 45.3334 31.9903 45.3334C28.5642 45.3334 26.8511 45.3334 25.5721 44.5532C24.9397 44.1676 24.3947 43.6544 23.9716 43.0464C23.1158 41.8168 23.0126 40.1068 22.8061 36.687L22 23.3334" stroke="#3F80FF" stroke-width="1.5" stroke-linecap="round"/>
  <path d="M20 23.3333H44M37.4076 23.3333L36.4975 21.4556C35.8928 20.2083 35.5904 19.5847 35.0689 19.1957C34.9533 19.1094 34.8308 19.0327 34.7027 18.9662C34.1252 18.6666 33.4321 18.6666 32.046 18.6666C30.6251 18.6666 29.9147 18.6666 29.3276 18.9788C29.1975 19.048 29.0733 19.1278 28.9564 19.2175C28.4289 19.6222 28.1342 20.2687 27.5448 21.5616L26.7372 23.3333" stroke="#3F80FF" stroke-width="1.5" stroke-linecap="round"/>
</svg>
