<svg width="20" height="20" viewBox="0 0 20 20" fill="none" xmlns="http://www.w3.org/2000/svg">
  <path d="M13.3333 14.1665H7.5" stroke="#8E95A3" stroke-width="1.25" stroke-linecap="round" stroke-linejoin="round"/>
  <path d="M13.3334 10.8335H10.8334" stroke="#8E95A3" stroke-width="1.25" stroke-linecap="round" stroke-linejoin="round"/>
  <path d="M17.0833 11.6665C17.0833 14.8092 17.0833 16.3806 16.046 17.3568C15.0086 18.3332 13.339 18.3332 9.99996 18.3332H9.35604C6.63835 18.3332 5.27951 18.3332 4.33585 17.6683C4.06548 17.4778 3.82544 17.2519 3.62304 16.9974C2.91663 16.1093 2.91663 14.8303 2.91663 12.2726V10.1513C2.91663 7.68205 2.91663 6.44739 3.30741 5.4613C3.93563 3.87602 5.26424 2.62557 6.94859 2.0343C7.99632 1.6665 9.30813 1.6665 11.9318 1.6665C13.431 1.6665 14.1806 1.6665 14.7793 1.87667C15.7418 2.21455 16.501 2.92909 16.86 3.83495C17.0833 4.39844 17.0833 5.10395 17.0833 6.51499V11.6665Z" stroke="#8E95A3" stroke-width="1.25" stroke-linejoin="round"/>
  <path d="M2.91663 9.99984C2.91663 8.46575 4.16028 7.22206 5.6944 7.22206C6.24923 7.22206 6.90333 7.31928 7.44277 7.17474C7.92206 7.0463 8.29643 6.67194 8.42488 6.19264C8.56938 5.6532 8.47221 4.9991 8.47221 4.44428C8.47221 2.91015 9.71588 1.6665 11.25 1.6665" stroke="#8E95A3" stroke-width="1.25" stroke-linecap="round" stroke-linejoin="round"/>
</svg>
