<svg width="32" height="32" viewBox="0 0 32 32" fill="none" xmlns="http://www.w3.org/2000/svg">
  <path d="M8 26.1641C7.08124 25.9038 6.35696 25.5089 5.75736 24.9093C4 23.152 4 20.3234 4 14.6666C4 9.00977 4 6.18135 5.75736 4.42399C7.51472 2.66663 10.3431 2.66663 16 2.66663C21.6568 2.66663 24.4853 2.66663 26.2427 4.42399C28 6.18135 28 9.00977 28 14.6666C28 20.3234 28 23.152 26.2427 24.9093C25.6431 25.5089 24.9188 25.9038 24 26.1641" stroke="#3F80FF" stroke-width="1.5" stroke-linecap="round"/>
  <path d="M16 26.9237C15.4477 26.9237 15.0033 27.3494 14.1144 28.201C13.2525 29.0266 12.8216 29.4394 12.4583 29.3098C12.4137 29.294 12.3707 29.273 12.3302 29.2473C12 29.0381 12 28.4148 12 27.1682V23.0016C12 20.9581 12 19.9364 12.5858 19.3014C13.1716 18.6666 14.1144 18.6666 16 18.6666C17.8856 18.6666 18.8284 18.6666 19.4143 19.3014C20 19.9364 20 20.9581 20 23.0016V27.1682C20 28.4148 20 29.0381 19.6699 29.2473C19.6292 29.273 19.5863 29.294 19.5417 29.3098C19.1784 29.4394 18.7475 29.0266 17.8856 28.201C16.9967 27.3494 16.5523 26.9237 16 26.9237Z" stroke="#3F80FF" stroke-width="1.5" stroke-linecap="round" stroke-linejoin="round"/>
  <path d="M10.667 13.3334H21.3337" stroke="#3F80FF" stroke-width="1.5" stroke-linecap="round" stroke-linejoin="round"/>
  <path d="M10.667 8H16.0003" stroke="#3F80FF" stroke-width="1.5" stroke-linecap="round" stroke-linejoin="round"/>
</svg>
